<svg xmlns="http://www.w3.org/2000/svg" viewBox="0 0 1175 430" preserveAspectRatio="xMidYMid meet"><defs><g id="emb"><g transform="translate(-262,-463)"><path d="M 424.00 493.50 C 430.08 494.08 449.33 494.50 460.00 497.50 C 470.67 500.50 482.42 508.08 488.00 511.50 C 493.58 514.92 495.08 514.25 493.50 518.00 C 491.92 521.75 481.75 531.08 478.50 534.00 C 475.25 536.92 477.08 536.75 474.00 535.50 C 470.92 534.25 465.17 528.83 460.00 526.50 C 454.83 524.17 452.33 521.83 443.00 521.50 C 433.67 521.17 418.83 520.33 404.00 524.50 C 389.17 528.67 374.33 534.50 354.00 546.50 C 333.67 558.50 296.58 591.42 282.00 596.50 C 267.42 601.58 263.83 584.50 266.50 577.00 C 269.17 569.50 287.25 559.42 298.00 551.50 C 308.75 543.58 318.50 536.83 331.00 529.50 C 343.50 522.17 361.83 512.67 373.00 507.50 C 384.17 502.33 389.58 500.75 398.00 498.50 C 406.42 496.25 419.17 494.83 423.50 494.00 C 427.83 493.17 417.92 492.92 424.00 493.50 Z M 331.00 688.50 C 335.75 688.75 347.50 687.00 359.00 690.50 C 370.50 694.00 390.33 705.67 400.00 709.50 C 409.67 713.33 409.17 713.33 417.00 713.50 C 424.83 713.67 437.00 713.50 447.00 710.50 C 457.00 707.50 468.00 699.17 477.00 695.50 C 486.00 691.83 492.50 689.33 501.00 688.50 C 509.50 687.67 516.33 687.00 528.00 690.50 C 539.67 694.00 561.00 705.67 571.00 709.50 C 581.00 713.33 580.50 713.17 588.00 713.50 C 595.50 713.83 605.33 714.67 616.00 711.50 C 626.67 708.33 642.50 698.33 652.00 694.50 C 661.50 690.67 664.50 689.00 673.00 688.50 C 681.50 688.00 695.33 689.67 703.00 691.50 C 710.67 693.33 716.08 697.42 719.00 699.50 C 721.92 701.58 723.00 700.50 720.50 704.00 C 718.00 707.50 709.75 718.75 704.00 720.50 C 698.25 722.25 691.67 715.33 686.00 714.50 C 680.33 713.67 678.67 712.50 670.00 715.50 C 661.33 718.50 644.00 728.50 634.00 732.50 C 624.00 736.50 619.33 738.50 610.00 739.50 C 600.67 740.50 591.33 742.00 578.00 738.50 C 564.67 735.00 541.83 722.50 530.00 718.50 C 518.17 714.50 514.00 714.50 507.00 714.50 C 500.00 714.50 498.00 714.67 488.00 718.50 C 478.00 722.33 458.00 733.83 447.00 737.50 C 436.00 741.17 430.83 741.00 422.00 740.50 C 413.17 740.00 405.33 738.67 394.00 734.50 C 382.67 730.33 363.50 718.83 354.00 715.50 C 344.50 712.17 343.17 713.83 337.00 714.50 C 330.83 715.17 322.92 721.75 317.00 719.50 C 311.08 717.25 299.25 706.08 301.50 701.00 C 303.75 695.92 325.58 691.08 330.50 689.00 C 335.42 686.92 326.25 688.25 331.00 688.50 Z" fill="#8FD3D8" fill-rule="evenodd"></path><path d="M 331.00 637.50 C 336.08 637.75 349.83 636.50 361.00 639.50 C 372.17 642.50 388.33 652.00 398.00 655.50 C 407.67 659.00 411.67 660.00 419.00 660.50 C 426.33 661.00 432.00 661.50 442.00 658.50 C 452.00 655.50 469.50 646.00 479.00 642.50 C 488.50 639.00 490.00 637.83 499.00 637.50 C 508.00 637.17 521.67 637.50 533.00 640.50 C 544.33 643.50 558.00 652.17 567.00 655.50 C 576.00 658.83 579.00 660.00 587.00 660.50 C 595.00 661.00 602.00 662.17 615.00 658.50 C 628.00 654.83 652.33 642.00 665.00 638.50 C 677.67 635.00 676.00 634.17 691.00 637.50 C 706.00 640.83 745.92 652.08 755.00 658.50 C 764.08 664.92 748.67 672.33 745.50 676.00 C 742.33 679.67 742.92 682.08 736.00 680.50 C 729.08 678.92 714.83 669.33 704.00 666.50 C 693.17 663.67 685.00 660.67 671.00 663.50 C 657.00 666.33 634.17 679.67 620.00 683.50 C 605.83 687.33 595.67 687.00 586.00 686.50 C 576.33 686.00 571.67 684.00 562.00 680.50 C 552.33 677.00 538.17 668.33 528.00 665.50 C 517.83 662.67 515.00 660.33 501.00 663.50 C 487.00 666.67 458.00 680.67 444.00 684.50 C 430.00 688.33 425.17 687.00 417.00 686.50 C 408.83 686.00 404.83 685.00 395.00 681.50 C 385.17 678.00 368.67 668.50 358.00 665.50 C 347.33 662.50 343.83 661.17 331.00 663.50 C 318.17 665.83 291.67 680.50 281.00 679.50 C 270.33 678.50 258.75 664.42 267.00 657.50 C 275.25 650.58 319.83 641.33 330.50 638.00 C 341.17 634.67 325.92 637.25 331.00 637.50 Z" fill="#2E9AA0" fill-rule="evenodd"></path><path d="M 620.00 466.50 C 622.58 466.92 615.67 460.17 635.00 469.50 C 654.33 478.83 712.25 505.42 736.00 522.50 C 759.75 539.58 770.58 562.58 777.50 572.00 C 784.42 581.42 778.75 576.92 777.50 579.00 C 776.25 581.08 772.25 583.75 770.00 584.50 C 767.75 585.25 769.83 586.00 764.00 583.50 C 758.17 581.00 741.58 574.25 735.00 569.50 C 728.42 564.75 727.67 558.33 724.50 555.00 C 721.33 551.67 733.08 556.25 716.00 549.50 C 698.92 542.75 645.75 511.25 622.00 514.50 C 598.25 517.75 584.83 550.17 573.50 569.00 C 562.17 587.83 562.58 619.25 554.00 627.50 C 545.42 635.75 531.33 620.17 522.00 618.50 C 512.67 616.83 505.67 617.00 498.00 617.50 C 490.33 618.00 487.17 618.17 476.00 621.50 C 464.83 624.83 440.83 634.83 431.00 637.50 C 421.17 640.17 421.83 638.33 417.00 637.50 C 412.17 636.67 404.67 634.33 402.00 632.50 C 399.33 630.67 384.83 638.00 401.00 626.50 C 417.17 615.00 474.17 582.67 499.00 563.50 C 523.83 544.33 529.92 527.58 550.00 511.50 C 570.08 495.42 607.83 474.50 619.50 467.00 C 631.17 459.50 617.42 466.08 620.00 466.50 Z M 627.00 562.50 C 629.92 562.58 636.00 561.67 644.00 563.50 C 652.00 565.33 668.42 569.75 675.00 573.50 C 681.58 577.25 682.75 580.75 683.50 586.00 C 684.25 591.25 681.58 600.58 679.50 605.00 C 677.42 609.42 676.58 609.75 671.00 612.50 C 665.42 615.25 655.83 616.83 646.00 621.50 C 636.17 626.17 622.00 636.83 612.00 640.50 C 602.00 644.17 591.83 643.67 586.00 643.50 C 580.17 643.33 579.08 642.25 577.00 639.50 C 574.92 636.75 572.08 634.58 573.50 627.00 C 574.92 619.42 580.42 602.75 585.50 594.00 C 590.58 585.25 597.17 579.67 604.00 574.50 C 610.83 569.33 622.67 565.00 626.50 563.00 C 630.33 561.00 624.08 562.42 627.00 562.50 Z" fill="#F5A623" fill-rule="evenodd"></path></g></g></defs><use href="#emb" transform="translate(20 88) scale(1.06)"></use><text x="650" y="78" font-family="Montserrat, &#39;Arial Black&#39;, &#39;Helvetica Neue&#39;, Arial, sans-serif" font-weight="800" font-size="70" fill="#F5A623" text-anchor="start" textLength="188" lengthAdjust="spacing">CLUB</text><text x="650" y="186" font-family="Montserrat, &#39;Arial Black&#39;, &#39;Helvetica Neue&#39;, Arial, sans-serif" font-weight="800" font-size="92" fill="#3FA9B5" text-anchor="start" textLength="300" lengthAdjust="spacing">AGUAS</text><text x="650" y="294" font-family="Montserrat, &#39;Arial Black&#39;, &#39;Helvetica Neue&#39;, Arial, sans-serif" font-weight="800" font-size="92" fill="#3FA9B5" text-anchor="start" textLength="470" lengthAdjust="spacing">ABIERTAS</text><text x="650" y="402" font-family="Montserrat, &#39;Arial Black&#39;, &#39;Helvetica Neue&#39;, Arial, sans-serif" font-weight="800" font-size="92" fill="#1C5468" text-anchor="start" textLength="470" lengthAdjust="spacing">CHILOÉ</text></svg>